PathFileType	4	(X/Y/Z)	Patient4_TMGait_0pt8_01_left_29.trc.trc
DataRate	CameraRate	NumFrames	NumMarkers	Units	OrigDataRate	OrigDataStartFrame	OrigNumFrames
87.500000000000	87.500000000000	4	33	mm	87.500000000000	53	       141
Frame#	Time	Sacral			L.Shoulder			Chest			R.Shoulder			Neck			R.ASIS			L.ASIS			R.Thigh.Superior			R.Thigh.Lateral			R.Thigh.Inferior			R.Patella			L.Thigh.Superior			L.Thigh.Lateral			L.Thigh.Inferior			L.Patella			L.Shank.Superior			L.Shank.Lateral			L.Shank.Inferior			R.Shank.Superior			R.Shank.Lateral			R.Shank.Inferior			R.Heel			R.Midfoot.Superior			R.Midfoot.Lateral			R.Toe			L.Heel			L.Midfoot.Lateral			L.Midfoot.Superior			L.Toe			L.Elbow			L.Wrist			R.Elbow			R.Wrist			
		X1	Y1	Z1	X2	Y2	Z2	X3	Y3	Z3	X4	Y4	Z4	X5	Y5	Z5	X6	Y6	Z6	X7	Y7	Z7	X8	Y8	Z8	X9	Y9	Z9	X10	Y10	Z10	X11	Y11	Z11	X12	Y12	Z12	X13	Y13	Z13	X14	Y14	Z14	X15	Y15	Z15	X16	Y16	Z16	X17	Y17	Z17	X18	Y18	Z18	X19	Y19	Z19	X20	Y20	Z20	X21	Y21	Z21	X22	Y22	Z22	X23	Y23	Z23	X24	Y24	Z24	X25	Y25	Z25	X26	Y26	Z26	X27	Y27	Z27	X28	Y28	Z28	X29	Y29	Z29	X30	Y30	Z30	X31	Y31	Z31	X32	Y32	Z32	X33	Y33	Z33	

53	32.414285714286	850.637753559262	1012.450936719265	457.251437206048	1041.877750695204	1439.855846470635	299.145120447579	1132.455096980599	1368.220874497996	466.568622027321	1035.483264257432	1438.689789942752	635.757266698963	1014.215351377165	1498.459121558862	455.607562801791	1066.390930508643	946.781743307611	591.863733948826	1076.990347647589	963.269642542330	317.808464644445	1140.490798135842	767.941242121487	571.966217058725	1088.309958044607	649.603910694923	641.293387117930	1180.781126252279	603.050597310763	569.385282037616	1188.275678195043	487.566003169572	594.060093395654	1117.290978726451	748.838010115746	345.330620958752	1023.355274572424	635.705462599909	285.597706440011	1104.848228837688	554.537873538815	349.530098865953	1103.135847592127	484.510949234371	360.553089588905	1070.983316541215	413.082475568025	352.840661218162	975.461510268782	305.189802877549	299.992558955440	1014.656017187788	191.006526556264	372.773441838062	1101.672047213973	421.744093495720	598.538063508229	971.557762802313	404.316869587751	651.838937497682	944.112686028754	296.462699223973	606.086322979988	739.802813341910	269.361319022190	566.235124670217	890.590022428831	179.138024144875	617.129185449254	779.702762466652	197.487308749983	641.377663342849	931.108569211546	55.438788908441	645.093839323624	877.051844387261	39.560783959325	411.026263410461	951.028877149010	36.364685464222	330.778062516302	1035.039947659438	95.963339284627	359.416983606625	1163.134282007072	41.686349762021	329.318166889568	1029.470946260842	1097.307028721442	155.454103221937	1204.081840773343	907.228926710631	193.569760065616	1020.790186101412	1083.889790265509	734.940451669204	1247.421469938202	965.496715329231	714.159532408895	
54	32.425714285714	849.428813134951	1012.925851641583	455.396498822804	1042.638596036687	1440.291307583897	297.924912967000	1131.283647853438	1368.939184311636	466.456686112126	1032.426187367628	1439.558903334240	634.497604103444	1013.339863287612	1499.144419185002	454.109204597163	1064.386847997706	948.255914151562	591.929632406183	1077.202136587729	963.967625517064	317.769158694677	1142.574114875715	773.481059697094	570.884411309069	1094.369637996339	653.732943137309	640.919519509375	1188.077476128583	609.800599266383	568.950881121399	1198.984834968502	494.302147561299	593.698320922380	1114.153458840044	747.721727458325	346.028491308030	1018.871768496346	635.916210288167	285.366953735774	1098.387879053810	553.619269401625	350.083762645963	1095.426976835109	483.791092845523	361.126640248129	1063.234026388905	412.840970702132	352.972093914792	967.424172405677	305.318889013490	299.879625445907	1005.932433626555	190.997730975185	372.776799683396	1114.111684942833	426.252535055900	597.794715217765	984.184289026569	405.448492763878	650.247452939154	959.796870275403	296.901205438225	604.311752995675	756.252446728088	264.023366227016	563.455071462657	909.453720391738	178.395040477922	614.781099697549	798.115907932482	193.564949095687	638.888340906698	953.553593287093	56.423953350235	643.051425153425	867.819350460734	39.720950600571	410.919190731305	941.841455532863	36.403106695821	330.750591841898	1025.909099173308	95.984474151384	359.341321018208	1153.940837339233	41.589322287580	329.277848391483	1038.458355372316	1098.556898783248	152.342993036678	1222.166549142409	918.652258377546	193.799986936526	1011.476658649997	1084.501334033892	732.940634736393	1226.623780980717	943.540625709128	717.389917996097	
55	32.437142857143	848.271060052199	1013.315807648673	453.693784270374	1043.453622606945	1440.739535455228	296.870931768117	1130.188326140321	1369.570665989029	466.434675239920	1029.500395343252	1440.265880174016	633.344352261043	1012.483521441187	1499.742471229689	452.787317851741	1062.505532144832	949.683744421029	592.030666692904	1077.368751589623	964.567968087049	317.765430419176	1144.386414222598	778.834373014525	570.137270773214	1099.850399415652	657.802474305739	640.758319305308	1194.732073485482	616.404835535234	568.841181398556	1208.890638484266	501.127187554131	593.646810248398	1110.930634108430	746.601117882614	346.939952536372	1014.437252902350	636.093224408679	285.136606675262	1091.928450819157	552.705054668712	350.645145952913	1087.725889074435	483.082151026046	361.657622814140	1055.518816841611	412.588263930638	353.091424315326	959.425950132399	305.437886341343	299.759130955194	997.206083208684	190.988632567415	372.782728333853	1126.176840605315	430.641694188947	597.313924216572	996.750842487690	405.557399342163	648.970429139193	976.142044299185	296.271554575622	602.826336143394	773.750192615331	256.373153496374	561.075805099215	929.812906019537	176.300699595723	612.751182836473	818.006122114583	187.525933168090	636.696090435629	978.230379103389	56.368459800600	641.106571759426	858.596004086134	39.900238514571	410.817703463419	932.664395972929	36.451218622755	330.733371263492	1016.793348965534	96.013539119945	359.267504210359	1144.756322274790	41.482834283845	329.249526542324	1047.249859616237	1100.015191935194	149.660797813627	1239.624293375219	930.909507751757	194.380268527124	1002.662557247851	1085.141607876657	731.398734632722	1203.867075604381	922.933050700946	720.549259715510	
56	32.448571428571	847.167859746741	1013.590750766923	452.145122247471	1044.302193718436	1441.166403403253	295.995307737609	1129.181079714146	1370.074801216684	466.499225914708	1026.745339544583	1440.758566698534	632.322717449789	1011.658130623427	1500.219168449463	451.659290324801	1060.756691224218	951.002652678020	592.144342368562	1077.438049176738	965.020241632956	317.782487584136	1145.939004534623	783.871684498915	569.705251228790	1104.733645461021	661.676634141347	640.764161222103	1200.695112722161	622.685923367360	568.987832663456	1217.907949389518	507.870711536884	593.845873061172	1107.657577195062	745.463425072248	347.993850262935	1010.058755582737	636.217512357326	284.887552041927	1085.493716783231	551.780832066427	351.174088613860	1080.063972774212	482.376460494101	362.115754797915	1047.858239417623	412.305108393555	353.182099190356	951.477008903348	305.533210683659	299.624550246870	988.484078855196	190.965396943694	372.792186975122	1137.769049322074	434.804349588095	597.064500478348	1009.255351182721	404.617477400283	648.044524698870	993.087736714780	294.632562774702	601.669802251608	792.355694841412	246.614086404555	559.202551330160	951.562351249275	173.000153202035	611.111798492795	839.368368334009	179.600413556714	634.906000767119	1004.918449290002	55.420556163771	639.367458341536	849.385576108661	40.093232037460	410.721904334204	923.498079379136	36.507604876693	330.723873682084	1007.691067533084	96.049320533392	359.197325655726	1135.581464210155	41.370424931928	329.229486949370	1055.820029435767	1101.622295310508	147.407117036554	1256.378457218214	943.905672228671	195.274258697884	994.253192816407	1085.734413019655	730.261228934053	1179.325064320424	903.953593037532	723.657648116676	
